# xmcd
#
# Track frame offsets:
#  220
#  19611
#  35234
#  52116
#  70950
#  87965
#  111505
#  129732
#  148075
#  170041
#  188486
#  208945
#  228311
#
# Disc length: 3220 seconds
#
# Revision: 3
# Processed by: cddbd v1.5.1PL2 Copyright (c) Steve Scherf et al.
# Submitted via: Collectorz.com_Music_Collector 6.10
#
DISCID=c70c920d
DTITLE=Валерия - Анна
DYEAR=1995
DGENRE=Pop
TTITLE0=Москва Слезам Не Верит
TTITLE1=С Добрым Утром
TTITLE2=Обычные Дела
TTITLE3=Самолет
TTITLE4=Золотая Рыбка
TTITLE5=Осени Дым
TTITLE6=Над Москвою Чистое Небо
TTITLE7=Птицы Летят На Юг
TTITLE8=Бессонница
TTITLE9=Небеса
TTITLE10=Не Уходи
TTITLE11=Воскресение
TTITLE12=Кода (Инструментал)
EXTD=
EXTT0=
EXTT1=
EXTT2=
EXTT3=
EXTT4=
EXTT5=
EXTT6=
EXTT7=
EXTT8=
EXTT9=
EXTT10=
EXTT11=
EXTT12=
PLAYORDER=
